PathFileType	4	(X/Y/Z)	SUBJ26_1_walk_RCNL2025.trc
DataRate	CameraRate	NumFrames	NumMarkers	Units	OrigDataRate	OrigDataStartFrame	OrigNumFrames
100	100	6	25	mm	100	337	385
Frame#	Time	R_Shoulder			L_Shoulder			C7			J_Notch			R_Elbow			L_Elbow			R_Wrist			L_Wrist			R_Asis			L_Asis			Sacral			Thoracic			Sternum			R_Thigh_Lateral			R_Knee_Lateral			R_Shank_Lateral			R_Ankle_Lateral			R_Heel			R_Toe			L_Thigh_Lateral			L_Knee_Lateral			L_Shank_Lateral			L_Ankle_Lateral			L_Heel			L_Toe		
		X1	Y1	Z1	X2	Y2	Z2	X3	Y3	Z3	X4	Y4	Z4	X5	Y5	Z5	X6	Y6	Z6	X7	Y7	Z7	X8	Y8	Z8	X9	Y9	Z9	X10	Y10	Z10	X11	Y11	Z11	X12	Y12	Z12	X13	Y13	Z13	X14	Y14	Z14	X15	Y15	Z15	X16	Y16	Z16	X17	Y17	Z17	X18	Y18	Z18	X19	Y19	Z19	X20	Y20	Z20	X21	Y21	Z21	X22	Y22	Z22	X23	Y23	Z23	X24	Y24	Z24	X25	Y25	Z25
337	3.36000000	1535.463501	1320.640381	329.145782	1516.060669	1330.521484	-4.603743	1446.034668	1389.566772	175.987259	1587.486572	1287.067871	154.745544	1455.384766	1008.560547	430.846741	1457.586548	1011.543152	-108.837067	1550.528992	773.662354	424.390182	1562.993774	787.185791	-116.895512	1579.437012	921.837708	277.783051	1516.185791	917.836792	-20.387175	1346.961548	930.198975	177.737503	1365.765991	1043.073242	165.875519	1627.295654	1032.556274	150.251114	1515.952393	586.848816	324.541504	1534.902222	438.758209	251.664749	1520.353882	286.737762	289.781891	1487.167969	55.559490	216.254929	1426.915161	44.184212	164.323227	1605.284180	45.447365	178.242905	1499.451782	604.355408	-64.924263	1553.235962	453.135284	-5.995290	1442.420776	321.209930	-68.615898	1328.062012	149.108261	27.317383	1272.968140	167.260162	86.200073	1415.801758	67.956482	58.515354
338	3.37000000	1548.532593	1321.354736	328.722534	1526.771362	1331.092529	-5.040263	1458.308594	1390.191406	176.296097	1599.287476	1287.323120	153.975784	1469.589233	1009.604980	431.892090	1464.596069	1012.148254	-108.170204	1567.611572	775.958862	424.039627	1565.845886	785.885651	-115.682648	1590.681519	922.098633	278.188019	1528.114990	919.431824	-19.608709	1358.048828	930.866516	176.980591	1377.233398	1043.848145	166.264023	1638.653076	1032.873779	149.581528	1524.472412	587.379517	324.795013	1537.826782	438.627075	251.395813	1521.955688	286.574310	289.644470	1487.184570	55.542454	216.213028	1426.899048	44.377991	164.361374	1605.374512	45.354027	178.117416	1517.273804	605.836487	-65.227371	1574.799561	455.599426	-5.955371	1468.579590	319.141663	-68.613739	1362.949097	141.503830	26.895008	1307.074219	155.800995	86.530067	1455.728516	65.750992	56.082466
339	3.38000000	1561.566040	1321.836670	328.273621	1537.454224	1331.503174	-5.478887	1470.551514	1390.591431	176.606125	1611.074463	1287.383423	153.187576	1483.791138	1010.404541	432.935760	1471.357178	1012.654602	-107.531219	1584.655090	778.048096	423.691788	1568.686157	784.680420	-114.496334	1601.793091	922.297668	278.730469	1540.280273	920.621338	-18.750288	1369.100586	931.271362	175.929718	1388.619751	1044.366943	166.468643	1650.063721	1032.975098	148.883789	1532.958984	587.697876	325.030548	1540.520752	438.497711	251.140320	1523.333496	286.475739	289.512390	1487.191772	55.535892	216.176529	1426.859863	44.578320	164.388687	1605.457275	45.278027	177.990494	1535.003906	607.223022	-65.575699	1595.809692	457.862305	-5.739919	1494.588623	316.786346	-68.457748	1398.707764	133.617752	26.379496	1342.229614	143.897995	86.770332	1496.192993	63.575710	53.643559
340	3.39000000	1574.555054	1322.063599	327.793854	1548.125732	1331.738159	-5.928082	1482.765869	1390.765381	176.899155	1622.849731	1287.250244	152.385391	1498.008179	1010.937378	433.962036	1477.893677	1013.046509	-106.907516	1601.648987	779.892242	423.363586	1571.545105	783.542511	-113.354210	1612.798462	922.401733	279.369141	1552.633057	921.348633	-17.892523	1380.186035	931.426575	174.667740	1399.963135	1044.630615	166.512131	1661.527832	1032.877686	148.153442	1541.377197	587.795471	325.232361	1543.000854	438.396790	250.912567	1524.497559	286.449554	289.411469	1487.187500	55.542603	216.143616	1426.798828	44.781181	164.397415	1605.520996	45.218266	177.872772	1552.605835	608.486694	-65.950455	1616.251343	459.873688	-5.361892	1520.463745	314.172852	-68.149605	1435.292480	125.583366	25.799114	1378.425781	131.759888	86.900154	1537.109863	61.546803	51.207909
341	3.40000000	1587.490723	1322.018921	327.279602	1558.800903	1331.784546	-6.393286	1494.951172	1390.711060	177.156036	1634.614136	1286.928711	151.574310	1512.259277	1011.190247	434.953033	1484.244995	1013.313965	-106.290390	1618.588257	781.461243	423.069565	1574.449585	782.443024	-112.271465	1623.729858	922.379822	280.054443	1565.119629	921.586914	-17.104864	1391.373413	931.340027	173.292282	1411.316528	1044.640259	166.422333	1673.042603	1032.595215	147.386108	1549.688110	587.692322	325.387177	1545.295044	438.354034	250.725586	1525.464355	286.505432	289.367249	1487.169678	55.567505	216.111359	1426.730713	44.987251	164.384491	1605.552734	45.170055	177.776230	1570.013550	609.588867	-66.318092	1636.110352	461.580505	-4.834388	1546.243774	311.314758	-67.706757	1472.667114	117.560310	25.172688	1415.630859	119.608887	86.894661	1578.391113	59.781410	48.816807
342	3.41000000	1600.363892	1321.694458	326.728210	1569.492065	1331.632690	-6.876719	1507.103149	1390.423584	177.356964	1646.368530	1286.425659	150.759872	1526.562744	1011.157776	435.889801	1490.464111	1013.453003	-105.675865	1635.471191	782.733307	422.820694	1577.423645	781.353516	-111.260101	1634.624512	922.207336	280.735779	1577.686646	921.341003	-16.439522	1402.709717	931.016052	171.896606	1422.736572	1044.394409	166.225800	1684.605103	1032.133301	146.577881	1557.813843	587.425720	325.483643	1547.432007	438.396637	250.589600	1526.247803	286.655396	289.395569	1487.136475	55.619114	216.073853	1426.680054	45.209248	164.350159	1605.544434	45.128231	177.705780	1587.127319	610.473755	-66.637772	1655.373657	462.927795	-4.172049	1571.996948	308.213898	-67.164986	1510.792847	109.726318	24.514860	1453.779785	107.678131	86.734184	1619.931641	58.390648	46.546196
